<?xml version="1.0" encoding="utf-8"?>
<?xml-stylesheet type="text/xsl" href="rss1.xsl"?>
<rss version="2.0" xmlns:atom="http://www.w3.org/2005/Atom" xmlns:content="http://purl.org/rss/1.0/modules/content/" xmlns:dc="http://purl.org/dc/elements/1.1/" xmlns:media="http://search.yahoo.com/mrss/">
<channel>
 <title>Getty</title>
 <link>http://www.gettyimg.com/</link>
 <atom:link href="http://www.gettyimg.com/" rel="self" type="application/rss+xml" />

 
                <item>
                <title><![CDATA[【PRORES HD】Marina Satti - Yiati Pouli M' [ProRes 1080]]]></title>
                <link><![CDATA[https://sharemania.us/threads/marina-satti-yiati-pouli-m-prores-1080.239456/]]></link>
                <description><![CDATA[<article>
<blockquote class="messageText SelectQuoteContainer ugc baseHtml">
<div style="text-align: center"><img src="https://i.ibb.co/8nk9pks/20240308031036.gif" class="bbCodeImage LbImage" alt="[​IMG]" data-url="https://i.ibb.co/8nk9pks/20240308031036.gif" style=""><br>
​</div>
<div class="ToggleTriggerAnchor bbCodeSpoilerContainer">
<button type="button" class="button bbCodeSpoilerButton ToggleTrigger Tooltip JsOnly" data-target="> .SpoilerTarget"><span>Spoiler: <span class="SpoilerTitle">ProRes</span></span></button>
<div class="SpoilerTarget bbCodeSpoilerText">
<div class="bbCodeBlock bbCodeCode">
<div class="type">Code:</div>
<pre>Format                                   : MPEG-4
Format profile                           : QuickTime
Codec ID                                 : qt   2005.03 (qt  )
File size                                : 3.53 GiB
Duration                                 : 3 min 36 s
Overall bit rate mode                    : Variable
Overall bit rate                         : 140 Mb/s
Encoded date                             : UTC 2022-02-23 03:30:12
Tagged date                              : UTC 2022-02-23 03:33:39
Writing library                          : Apple QuickTime
TIM                                      : 00:00:00:00
TSC                                      : 24000
TSZ                                      : 1001

Video
ID                                       : 1
Format                                   : ProRes
Format version                           : Version 0
Format profile                           : 422 HQ
Codec ID                                 : apch
Duration                                 : 3 min 36 s
Bit rate mode                            : Variable
Bit rate                                 : 138 Mb/s
Width                                    : 1 440 pixels
Height                                   : 1 080 pixels
Display aspect ratio                     : 4:3
Frame rate mode                          : Constant
Frame rate                               : 23.976 (24000/1001) FPS
Color space                              : YUV
Chroma subsampling                       : 4:2:2
Scan type                                : Progressive
Bits/(Pixel*Frame)                       : 3.708
Stream size                              : 3.49 GiB (99%)
Writing library                          : Apple
Language                                 : English
Encoded date                             : UTC 2022-02-23 03:30:12
Tagged date                              : UTC 2022-02-23 03:30:12
Color primaries                          : BT.709
Transfer characteristics                 : BT.709
Matrix coefficients                      : BT.709
Menus                                    : 0

Audio
ID                                       : 2
Format                                   : PCM
Format settings                          : Little / Signed
Codec ID                                 : sowt
Duration                                 : 3 min 36 s
Bit rate mode                            : Constant
Bit rate                                 : 1 536 kb/s
Channel(s)                               : 2 channels
Channel layout                           : L R
Sampling rate                            : 48.0 kHz
Bit depth                                : 16 bits
Stream size                              : 39.7 MiB (1%)
Language                                 : English
Encoded date                             : UTC 2022-02-23 03:30:12
Tagged date                              : UTC 2022-02-23 03:30:12
Menus                                    : 0

Other
ID                                       : 3
Type                                     : Time code
Format                                   : QuickTime TC
Duration                                 : 3 min 36 s
Frame rate                               : 23.976 (24000/1001) FPS
Time code of first frame                 : 00:00:00:00
Time code, striped                       : Yes
Language                                 : English
Encoded date                             : UTC 2022-02-23 03:30:12
Tagged date                              : UTC 2022-02-23 03:30:12</pre>
</div><div style="text-align: center">​</div></div>
</div><div style="text-align: center"><br>
<div class="bbCodeBlock bbCodeVfcHH HiddenContent">
<div class="attribution type">Hidden Content:</div>
<blockquote>You must reply before you can see the hidden data contained here.</blockquote>
</div></div>
<div class="messageTextEndMarker">&nbsp;</div>
</blockquote>
</article>]]></description>
                <author><![CDATA[fstambuk]]></author>
                </item>

                
                <item>
                <title><![CDATA[【HD Live Performances】FEED - Doja Cat - Say So／Like That + PUSH BEST NEW ARTIST - MTV Video Music Awards S01E37 2020-08-30 1080i BACKHAUL MPA2.0 H.264-TrollHD]]></title>
                <link><![CDATA[https://sharemania.us/threads/doja-cat-say-so%EF%BC%8Flike-that-push-best-new-artist-mtv-video-music-awards-s01e37-2020-08-30-1080i-backhaul-mpa2-0-h-264-trollhd.239454/]]></link>
                <description><![CDATA[<article>
<blockquote class="messageText SelectQuoteContainer ugc baseHtml">
<div style="text-align: center"><img src="https://i.ibb.co/QMS6MMn/gg-2.png" class="bbCodeImage LbImage" alt="[​IMG]" data-url="https://i.ibb.co/QMS6MMn/gg-2.png" style=""><br>
<img src="https://i.ibb.co/9vXHcZ7/gg-1.png" class="bbCodeImage LbImage" alt="[​IMG]" data-url="https://i.ibb.co/9vXHcZ7/gg-1.png" style=""><br>
<div class="bbCodeBlock bbCodeVfcHH HiddenContent">
<div class="attribution type">Hidden Content:</div>
<blockquote>You must either reply or click 'Like' to see the hidden information contained here.</blockquote>
</div></div>
<div class="messageTextEndMarker">&nbsp;</div>
</blockquote>
</article>]]></description>
                <author><![CDATA[SCANDAL]]></author>
                </item>

                
                <item>
                <title><![CDATA[【Requests】[REQ VID] - Animorphs (1998 - 2000) S01 &amp; S02 AMZN WEB-DL DDP2.0 x264 - BTW]]></title>
                <link><![CDATA[https://sharemania.us/threads/animorphs-1998-2000-s01-s02-amzn-web-dl-ddp2-0-x264-btw.239455/]]></link>
                <description><![CDATA[<article>
<blockquote class="messageText SelectQuoteContainer ugc baseHtml">
thanks
<div class="messageTextEndMarker">&nbsp;</div>
</blockquote>
</article>]]></description>
                <author><![CDATA[sunnyillion]]></author>
                </item>

                </channel></rss>